<svg width="168" height="42" viewBox="0 0 168 42" fill="none" xmlns="http://www.w3.org/2000/svg">
<path d="M47.1211 12.9659L18.7549 13.2869C16.515 13.3122 14.6997 12.6767 13.3089 11.3804C11.9182 10.0841 11.2089 8.20396 11.181 5.74012C11.1701 4.78018 11.2876 3.85079 11.5335 2.95195C11.7793 2.05311 12.1708 1.29663 12.7079 0.682515L15.2647 1.80566C14.8542 2.29033 14.5566 2.85374 14.3718 3.49587C14.1551 4.13836 14.0509 4.82759 14.0592 5.56354C14.0755 7.00345 14.4879 8.10285 15.2966 8.86175C16.1052 9.62065 17.2935 9.99123 18.8614 9.97349L22.7011 9.93004L24.284 9.81612L47.0825 9.55814L47.1211 12.9659ZM24.8055 17.7307L21.9737 17.7628L21.7972 2.16377L24.629 2.13172L24.8055 17.7307Z" fill="#5552FF"/>
<path d="M48.6024 39.2138L46.1545 39.2415L32.3173 25.4292C31.0549 24.1634 29.9562 23.2157 29.021 22.5863C28.0538 21.9572 27.153 21.5354 26.3185 21.3208C25.484 21.1062 24.6988 21.0031 23.9628 21.0114C22.0109 21.0335 20.4827 21.7228 19.3779 23.0794C18.2728 24.404 17.735 26.3622 17.7643 28.9541C17.7867 30.9379 18.1106 32.6944 18.736 34.2234C19.361 35.7204 20.3196 37.0057 21.6118 38.0791L19.5276 40.5508C17.9769 39.2563 16.7739 37.5898 15.9188 35.5514C15.0637 33.5129 14.6218 31.2298 14.5932 28.7019C14.5675 26.4301 14.9132 24.458 15.6304 22.7858C16.3155 21.1139 17.3409 19.8223 18.7067 18.9108C20.0721 17.9672 21.6828 17.485 23.5387 17.464C24.6266 17.4517 25.7003 17.5995 26.7599 17.9076C27.8191 18.1836 28.9452 18.7149 30.1381 19.5014C31.2988 20.2564 32.6235 21.3774 34.1124 22.8647L46.8327 35.5376L45.4996 36.5127L45.2639 15.6821L48.3357 15.6473L48.6024 39.2138Z" fill="#EE9D00"/>
<path d="M66.76 21.448H78.6V23.496H66.76V21.448ZM67.016 33H64.648V10.6H80.008V12.648H67.016V33ZM84.418 33V9.256H86.69V33H84.418ZM100.148 33.16C98.3984 33.16 96.8624 32.7973 95.5398 32.072C94.2171 31.3253 93.1824 30.312 92.4358 29.032C91.6891 27.7307 91.3158 26.248 91.3158 24.584C91.3158 22.92 91.6678 21.448 92.3718 20.168C93.0971 18.888 94.0784 17.8853 95.3158 17.16C96.5744 16.4133 97.9824 16.04 99.5398 16.04C101.118 16.04 102.516 16.4027 103.732 17.128C104.969 17.832 105.94 18.8347 106.644 20.136C107.348 21.416 107.7 22.8987 107.7 24.584C107.7 24.6907 107.689 24.808 107.668 24.936C107.668 25.0427 107.668 25.16 107.668 25.288H93.0438V23.592H106.452L105.556 24.264C105.556 23.048 105.289 21.9707 104.756 21.032C104.244 20.072 103.54 19.3253 102.644 18.792C101.748 18.2587 100.713 17.992 99.5398 17.992C98.3878 17.992 97.3531 18.2587 96.4358 18.792C95.5184 19.3253 94.8038 20.072 94.2918 21.032C93.7798 21.992 93.5238 23.0907 93.5238 24.328V24.68C93.5238 25.96 93.8011 27.0907 94.3558 28.072C94.9318 29.032 95.7211 29.7893 96.7238 30.344C97.7478 30.8773 98.9104 31.144 100.212 31.144C101.236 31.144 102.185 30.9627 103.06 30.6C103.956 30.2373 104.724 29.6827 105.364 28.936L106.644 30.408C105.897 31.304 104.958 31.9867 103.828 32.456C102.718 32.9253 101.492 33.16 100.148 33.16ZM109.296 33L116.4 23.784L116.368 24.904L109.616 16.2H112.176L117.712 23.4L116.752 23.368L122.288 16.2H124.784L117.968 25L118 23.784L125.168 33H122.576L116.72 25.32L117.616 25.448L111.856 33H109.296Z" fill="#5552FF"/>
<path d="M131.541 21.448H143.381V23.496H131.541V21.448ZM131.797 33H129.429V10.6H144.789V12.648H131.797V33ZM149.199 33V16.2H151.471V33H149.199ZM150.351 12.488C149.882 12.488 149.487 12.328 149.167 12.008C148.847 11.688 148.687 11.304 148.687 10.856C148.687 10.408 148.847 10.0347 149.167 9.736C149.487 9.416 149.882 9.256 150.351 9.256C150.821 9.256 151.215 9.40533 151.535 9.704C151.855 10.0027 152.015 10.376 152.015 10.824C152.015 11.2933 151.855 11.688 151.535 12.008C151.237 12.328 150.842 12.488 150.351 12.488ZM163.105 33.16C161.526 33.16 160.31 32.7333 159.457 31.88C158.604 31.0267 158.177 29.8213 158.177 28.264V12.488H160.449V28.136C160.449 29.1173 160.694 29.8747 161.185 30.408C161.697 30.9413 162.422 31.208 163.361 31.208C164.364 31.208 165.196 30.92 165.857 30.344L166.657 31.976C166.209 32.3813 165.665 32.68 165.025 32.872C164.406 33.064 163.766 33.16 163.105 33.16ZM155.169 18.088V16.2H165.569V18.088H155.169Z" fill="#EE9D00"/>
</svg>
