<svg width="49" height="42" viewBox="0 0 49 42" fill="none" xmlns="http://www.w3.org/2000/svg">
<path d="M47.121 13.1542L18.7548 13.4751C16.515 13.5005 14.6997 12.865 13.3089 11.5686C11.9182 10.2723 11.2089 8.39219 11.181 5.92835C11.1701 4.96841 11.2876 4.03902 11.5334 3.14018C11.7793 2.24134 12.1708 1.48486 12.7078 0.870748L15.2647 1.99389C14.8542 2.47857 14.5565 3.04197 14.3718 3.6841C14.155 4.3266 14.0508 5.01582 14.0592 5.75177C14.0755 7.19168 14.4879 8.29108 15.2966 9.04998C16.1052 9.80888 17.2935 10.1795 18.8614 10.1617L22.7011 10.1183L24.2839 10.0044L47.0825 9.74638L47.121 13.1542ZM24.8055 17.919L21.9737 17.951L21.7972 2.352L24.629 2.31996L24.8055 17.919Z" fill="#5552FF"/>
<path d="M48.6023 39.402L46.1545 39.4297L32.3173 25.6174C31.0549 24.3516 29.9561 23.404 29.0209 22.7745C28.0538 22.1454 27.1529 21.7236 26.3185 21.509C25.484 21.2944 24.6988 21.1913 23.9628 21.1996C22.0109 21.2217 20.4826 21.9111 19.3779 23.2677C18.2728 24.5922 17.7349 26.5505 17.7643 29.1423C17.7867 31.1262 18.1106 32.8826 18.736 34.4116C19.3609 35.9087 20.3195 37.1939 21.6118 38.2673L19.5276 40.7391C17.9769 39.4445 16.7739 37.778 15.9188 35.7396C15.0637 33.7011 14.6218 31.418 14.5932 28.8902C14.5675 26.6183 14.9132 24.6463 15.6303 22.974C16.3155 21.3022 17.3409 20.0105 18.7067 19.099C20.0721 18.1555 21.6828 17.6732 23.5386 17.6522C24.6266 17.6399 25.7003 17.7878 26.7599 18.0958C27.8191 18.3718 28.9451 18.9031 30.1381 19.6897C31.2987 20.4446 32.6235 21.5657 34.1124 23.0529L46.8326 35.7258L45.4996 36.701L45.2639 15.8703L48.3357 15.8355L48.6023 39.402Z" fill="white"/>
</svg>
